<?xml version="1.0" encoding="UTF-8"?>
<svg xmlns="http://www.w3.org/2000/svg">
    <symbol id="add" viewBox="0 0 24 24">
      <svg
         width="24"
         height="24"
         viewBox="0 0 800 800"
         className="text-gray-400"
       >
         <g
           transform="translate(0.000000,800.000000) scale(0.100000,-0.100000)"
           fill="currentColor"
         >
           <path d="M3745 7574 c-16 -2 -79 -9 -140 -15 -236 -23 -522 -87 -770 -173 -1224 -420 -2129 -1473 -2359 -2746 -43 -238 -51 -340 -51 -640 0 -300 8 -402 51 -640 265 -1465 1419 -2619 2884 -2884 238 -43 340 -51 640 -51 300 0 402 8 640 51 1465 265 2619 1419 2884 2884 43 238 51 340 51 640 0 300 -8 402 -51 640 -248 1369 -1272 2473 -2619 2825 -307 80 -510 106 -860 110 -148 2 -283 1 -300 -1z m595 -510 c1441 -165 2559 -1283 2724 -2724 21 -176 21 -504 0 -680 -165 -1441 -1283 -2559 -2724 -2724 -176 -21 -504 -21 -680 0 -1441 165 -2559 1283 -2724 2724 -33 284 -17 654 41 945 260 1309 1337 2301 2673 2459 162 19 524 20 690 0z" />
           <path d="M3940 5241 c-79 -26 -132 -72 -166 -146 -24 -50 -24 -51 -24 -447 l0 -398 -398 0 -399 0 -61 -31 c-68 -34 -112 -85 -131 -154 -15 -55 -14 -86 5 -142 22 -64 58 -108 113 -141 l46 -27 413 -3 412 -3 0 -392 c0 -446 1 -457 77 -533 95 -95 246 -97 341 -5 78 76 77 66 80 523 l3 407 407 3 c406 3 407 3 455 27 96 47 153 168 129 272 -18 78 -61 132 -134 168 l-61 31 -398 0 -398 0 -3 408 c-3 394 -4 408 -24 447 -28 51 -68 92 -118 117 -43 22 -128 32 -166 19z" />
         </g>
       </svg>
    </symbol>

    <symbol id="cross" viewBox="0 0 14 14">
      <svg
         className="w-3 h-3"
         aria-hidden="true"
         xmlns="http://www.w3.org/2000/svg"
         fill="none"
         viewBox="0 0 14 14"
       >
         <path
           stroke="currentColor"
           strokeLinecap="round"
           strokeLinejoin="round"
           strokeWidth="2"
           d="m1 1 6 6m0 0 6 6M7 7l6-6M7 7l-6 6"
         />
      </svg>
    </symbol>

    <symbol id="refresh" viewBox="0 0 24 24">
      <svg version="1.0" xmlns="http://www.w3.org/2000/svg"
        width="512.000000pt" height="512.000000pt" viewBox="0 0 512.000000 512.000000"
        preserveAspectRatio="xMidYMid meet">

        <g transform="translate(0.000000,512.000000) scale(0.100000,-0.100000)"
        fill="currentColor" stroke="none">
        <path d="M2265 4673 c-683 -91 -1294 -525 -1601 -1136 -100 -198 -185 -448
        -186 -547 -2 -98 65 -186 159 -209 120 -31 229 44 263 179 50 200 156 434 268
        589 518 726 1497 931 2267 473 181 -108 405 -317 523 -489 34 -50 65 -99 68
        -107 5 -14 -18 -16 -220 -16 -242 0 -273 -5 -324 -53 -115 -107 -71 -314 76
        -357 25 -8 194 -10 518 -8 l480 3 37 25 c21 14 50 43 65 64 l27 39 3 481 c2
        324 0 493 -8 518 -43 147 -250 191 -357 76 -43 -45 -53 -89 -53 -223 0 -69 -3
        -125 -7 -124 -5 0 -33 32 -63 70 -76 97 -235 249 -358 341 -295 223 -642 365
        -1010 413 -142 19 -420 18 -567 -2z"/>
        <path d="M4378 2340 c-42 -13 -96 -48 -117 -78 -10 -15 -33 -76 -51 -137 -96
        -332 -243 -582 -475 -803 -574 -548 -1461 -622 -2123 -178 -172 115 -345 288
        -458 457 -35 53 -64 99 -64 102 0 3 108 7 239 9 l239 3 44 30 c24 17 54 51 68
        75 62 112 2 265 -118 300 -25 8 -194 10 -519 8 l-481 -3 -43 -30 c-23 -16 -53
        -50 -66 -74 l-23 -44 0 -479 c0 -409 2 -484 15 -516 64 -152 273 -172 370 -34
        29 43 30 47 35 189 l5 146 50 -64 c73 -95 247 -265 353 -347 308 -237 670
        -384 1062 -432 125 -15 381 -12 522 6 762 98 1414 605 1698 1320 53 132 102
        306 102 364 2 140 -135 249 -264 210z"/>
        </g>
      </svg>
    </symbol>

</svg>
